<svg xmlns="http://www.w3.org/2000/svg" viewBox="0 0 24 24" role="img" aria-labelledby="github-title">
  <title id="github-title">GitHub</title>
  <path fill="currentColor" d="M12 2C6.48 2 2 6.58 2 12.25c0 4.52 2.87 8.35 6.84 9.7.5.1.68-.22.68-.5 0-.24-.01-1.05-.02-1.9-2.78.62-3.37-1.22-3.37-1.22-.45-1.18-1.1-1.5-1.1-1.5-.9-.63.07-.62.07-.62 1 .07 1.53 1.05 1.53 1.05.89 1.56 2.34 1.1 2.91.84.09-.66.35-1.1.63-1.36-2.22-.26-4.56-1.14-4.56-5.06 0-1.12.39-2.03 1.03-2.75-.1-.26-.45-1.3.1-2.7 0 0 .84-.28 2.75 1.05A9.32 9.32 0 0 1 12 6.94c.85 0 1.7.12 2.5.34 1.9-1.33 2.74-1.05 2.74-1.05.55 1.4.2 2.44.1 2.7.64.72 1.03 1.63 1.03 2.75 0 3.93-2.34 4.8-4.57 5.05.36.32.68.94.68 1.9 0 1.36-.01 2.46-.01 2.8 0 .28.18.6.69.5A10.2 10.2 0 0 0 22 12.25C22 6.58 17.52 2 12 2Z"/>
</svg>
